<svg width="106" height="18" viewBox="0 0 106 18" fill="none" xmlns="http://www.w3.org/2000/svg">
<path d="M6.16447 13.44L9.22131 4.74945H12.2908L7.56657 17.6084H4.76236L0.000254937 4.74945H3.12025L6.16447 13.44ZM16.0169 11.9747C16.0675 12.4379 16.1769 12.88 16.3454 13.301C16.5138 13.7137 16.7285 14.08 16.9896 14.4C17.2506 14.7116 17.5538 14.96 17.8991 15.1452C18.2443 15.3305 18.6148 15.4231 19.0106 15.4231C19.7433 15.4231 20.3496 15.2252 20.8296 14.8295C21.318 14.4252 21.7054 13.8231 21.9917 13.0231H24.7454C24.5769 13.7895 24.3033 14.4716 23.9243 15.0695C23.5538 15.6673 23.1117 16.1726 22.598 16.5852C22.0843 16.9979 21.5159 17.3137 20.8927 17.5326C20.278 17.7516 19.6422 17.861 18.9854 17.861C18.0591 17.861 17.2254 17.6758 16.4843 17.3052C15.7433 16.9347 15.1117 16.4379 14.5896 15.8147C14.0675 15.1916 13.6633 14.4673 13.3769 13.6421C13.0991 12.8084 12.9601 11.9326 12.9601 11.0147C12.9601 10.1558 13.0991 9.33471 13.3769 8.55156C13.6633 7.75998 14.0675 7.06524 14.5896 6.46735C15.1117 5.86103 15.7433 5.38103 16.4843 5.02735C17.2338 4.67366 18.0717 4.49682 18.998 4.49682C19.8906 4.49682 20.6991 4.65682 21.4233 4.97682C22.1475 5.29682 22.7664 5.74314 23.2801 6.31577C23.7938 6.87998 24.1854 7.54945 24.4548 8.32419C24.7327 9.0905 24.8717 9.91998 24.8717 10.8126V11.9747H16.0169ZM21.8401 9.71366C21.7896 9.30945 21.6843 8.94314 21.5243 8.61471C21.3727 8.28629 21.1706 8.00419 20.918 7.7684C20.6654 7.52419 20.3664 7.33893 20.0212 7.21261C19.6759 7.07787 19.2969 7.0105 18.8843 7.0105C18.5054 7.0105 18.1517 7.08208 17.8233 7.22524C17.5033 7.3684 17.2169 7.56208 16.9643 7.80629C16.7201 8.0505 16.5138 8.33682 16.3454 8.66524C16.1854 8.99366 16.0759 9.34314 16.0169 9.71366H21.8401ZM27.2 4.74945H30.1811V6.26524C30.7369 5.63366 31.3179 5.18314 31.9243 4.91366C32.539 4.63577 33.1664 4.49682 33.8064 4.49682C34.4632 4.49682 35.0527 4.59366 35.5748 4.78735C36.0969 4.98103 36.5348 5.25893 36.8885 5.62103C37.2506 5.97471 37.5285 6.40419 37.7221 6.90945C37.9158 7.40629 38.0127 7.96208 38.0127 8.57682V17.6084H35.0316V9.05682C35.0316 8.7284 34.9853 8.43787 34.8927 8.18524C34.8 7.93261 34.6737 7.71787 34.5137 7.54103C34.3537 7.36419 34.1643 7.23366 33.9453 7.14945C33.7264 7.05682 33.4948 7.0105 33.2506 7.0105C32.8548 7.0105 32.4716 7.09471 32.1011 7.26314C31.7306 7.42314 31.4021 7.64208 31.1158 7.91998C30.8379 8.18945 30.6106 8.50524 30.4337 8.86735C30.2653 9.22103 30.1811 9.59156 30.1811 9.97892V17.6084H27.2V4.74945ZM44.7454 1.21261V4.74945H47.1075V7.18735H44.7454V14.1852C44.7454 14.5389 44.8254 14.8337 44.9854 15.0695C45.1538 15.3052 45.3854 15.4231 45.6801 15.4231C45.7727 15.4231 45.958 15.4105 46.2359 15.3852C46.5138 15.3516 46.8969 15.2379 47.3854 15.0442V17.3937C46.8632 17.5958 46.3664 17.7221 45.8948 17.7726C45.4317 17.8316 45.0485 17.861 44.7454 17.861C44.3496 17.861 43.9706 17.781 43.6085 17.621C43.2464 17.461 42.9264 17.2379 42.6485 16.9516C42.379 16.6568 42.1643 16.3031 42.0043 15.8905C41.8443 15.4779 41.7643 15.0189 41.7643 14.5137V7.18735H39.9327V4.74945H41.7643V1.21261H44.7454ZM60.0079 17.6084H57.0268V16.1558C56.7068 16.4842 56.3952 16.7579 56.0921 16.9768C55.7889 17.1958 55.49 17.3726 55.1952 17.5073C54.9005 17.6337 54.6015 17.7221 54.2984 17.7726C53.9952 17.8316 53.6836 17.861 53.3636 17.861C52.7152 17.861 52.1342 17.7642 51.6205 17.5705C51.1152 17.3768 50.6815 17.1031 50.3194 16.7495C49.9573 16.3873 49.6794 15.9579 49.4857 15.461C49.3005 14.9558 49.2079 14.3916 49.2079 13.7684V4.74945H52.1889V13.5537C52.1889 13.8821 52.231 14.1642 52.3152 14.4C52.4079 14.6273 52.53 14.8126 52.6815 14.9558C52.8415 15.0989 53.0268 15.2042 53.2373 15.2716C53.4479 15.3305 53.6752 15.36 53.9194 15.36C54.3068 15.36 54.6857 15.2716 55.0563 15.0947C55.4352 14.9095 55.7679 14.661 56.0542 14.3495C56.3489 14.0379 56.5847 13.68 56.7615 13.2758C56.9384 12.8716 57.0268 12.4421 57.0268 11.9873V4.74945H60.0079V17.6084ZM62.9763 4.74945H65.1869L65.6795 6.3284C66.0669 5.72208 66.4669 5.26735 66.8795 4.96419C67.3005 4.65261 67.7595 4.49682 68.2563 4.49682C68.4079 4.49682 68.6521 4.5305 68.989 4.59787C69.3258 4.65682 69.73 4.81682 70.2016 5.07787V7.65471C69.89 7.53682 69.6205 7.44419 69.3932 7.37682C69.1742 7.30945 68.989 7.26314 68.8374 7.23787C68.6942 7.20419 68.5805 7.18735 68.4963 7.18735C68.4205 7.17893 68.3658 7.17471 68.3321 7.17471C67.9616 7.17471 67.629 7.25471 67.3342 7.41471C67.0395 7.56629 66.7911 7.77261 66.589 8.03366C66.3869 8.28629 66.2311 8.58103 66.1216 8.91787C66.0121 9.25471 65.9574 9.60419 65.9574 9.96629V17.6084H62.9763V4.74945ZM73.7669 11.9747C73.8175 12.4379 73.9269 12.88 74.0954 13.301C74.2638 13.7137 74.4785 14.08 74.7396 14.4C75.0006 14.7116 75.3038 14.96 75.6491 15.1452C75.9943 15.3305 76.3648 15.4231 76.7606 15.4231C77.4933 15.4231 78.0996 15.2252 78.5796 14.8295C79.068 14.4252 79.4554 13.8231 79.7417 13.0231H82.4954C82.3269 13.7895 82.0533 14.4716 81.6743 15.0695C81.3038 15.6673 80.8617 16.1726 80.348 16.5852C79.8343 16.9979 79.2659 17.3137 78.6427 17.5326C78.028 17.7516 77.3922 17.861 76.7354 17.861C75.8091 17.861 74.9754 17.6758 74.2343 17.3052C73.4933 16.9347 72.8617 16.4379 72.3396 15.8147C71.8175 15.1916 71.4133 14.4673 71.1269 13.6421C70.8491 12.8084 70.7101 11.9326 70.7101 11.0147C70.7101 10.1558 70.8491 9.33471 71.1269 8.55156C71.4133 7.75998 71.8175 7.06524 72.3396 6.46735C72.8617 5.86103 73.4933 5.38103 74.2343 5.02735C74.9838 4.67366 75.8217 4.49682 76.748 4.49682C77.6406 4.49682 78.4491 4.65682 79.1733 4.97682C79.8975 5.29682 80.5164 5.74314 81.0301 6.31577C81.5438 6.87998 81.9354 7.54945 82.2048 8.32419C82.4827 9.0905 82.6217 9.91998 82.6217 10.8126V11.9747H73.7669ZM79.5901 9.71366C79.5396 9.30945 79.4343 8.94314 79.2743 8.61471C79.1227 8.28629 78.9206 8.00419 78.668 7.7684C78.4154 7.52419 78.1164 7.33893 77.7712 7.21261C77.4259 7.07787 77.0469 7.0105 76.6343 7.0105C76.2554 7.0105 75.9017 7.08208 75.5733 7.22524C75.2533 7.3684 74.9669 7.56208 74.7143 7.80629C74.4701 8.0505 74.2638 8.33682 74.0954 8.66524C73.9354 8.99366 73.8259 9.34314 73.7669 9.71366H79.5901ZM87.5395 14.3873V17.6084H84.1164V14.3873H87.5395ZM101.354 17.2673C101.11 17.4189 100.895 17.5326 100.71 17.6084C100.525 17.6926 100.356 17.7516 100.205 17.7852C100.061 17.8273 99.9351 17.8484 99.8256 17.8484C99.7245 17.8568 99.6361 17.861 99.5603 17.861C99.2572 17.861 98.9793 17.8063 98.7267 17.6968C98.4824 17.5873 98.2635 17.4442 98.0698 17.2673C97.8845 17.0821 97.7203 16.8716 97.5772 16.6358C97.4424 16.3916 97.3288 16.1347 97.2361 15.8652C96.8572 16.261 96.4993 16.5895 96.1624 16.8505C95.8256 17.1031 95.493 17.3052 95.1645 17.4568C94.8361 17.6084 94.5077 17.7137 94.1793 17.7726C93.8509 17.8316 93.5098 17.861 93.1561 17.861C92.5751 17.861 92.0319 17.7726 91.5267 17.5958C91.0298 17.4105 90.5961 17.1537 90.2256 16.8252C89.8551 16.4884 89.5645 16.0842 89.354 15.6126C89.1435 15.141 89.0382 14.6189 89.0382 14.0463C89.0382 13.5495 89.1477 13.12 89.3667 12.7579C89.594 12.3958 89.8888 12.08 90.2509 11.8105C90.6214 11.541 91.0382 11.3095 91.5014 11.1158C91.973 10.9221 92.4488 10.7495 92.9288 10.5979C93.4172 10.4379 93.893 10.2863 94.3561 10.1431C94.8277 9.99998 95.2445 9.8484 95.6067 9.6884C95.9772 9.5284 96.2719 9.35156 96.4909 9.15787C96.7182 8.95577 96.8319 8.71577 96.8319 8.43787C96.8319 8.1684 96.7603 7.94524 96.6172 7.7684C96.4824 7.58314 96.3056 7.43577 96.0867 7.32629C95.8761 7.2084 95.6361 7.12419 95.3667 7.07366C95.1056 7.02314 94.8488 6.99787 94.5961 6.99787C94.3435 6.99787 94.0909 7.03577 93.8382 7.11156C93.5856 7.17893 93.354 7.2884 93.1435 7.43998C92.9414 7.59156 92.7688 7.78945 92.6256 8.03366C92.4824 8.26945 92.3898 8.55156 92.3477 8.87998H89.3288C89.3793 8.13893 89.5603 7.49471 89.8719 6.94735C90.1919 6.39156 90.5961 5.93261 91.0845 5.5705C91.573 5.2084 92.1203 4.93893 92.7267 4.76208C93.3414 4.58524 93.9645 4.49682 94.5961 4.49682C95.2867 4.49682 95.9435 4.57261 96.5667 4.72419C97.1982 4.87577 97.754 5.11577 98.234 5.44419C98.714 5.77261 99.0972 6.19366 99.3835 6.70735C99.6698 7.21261 99.813 7.82314 99.813 8.53892V14.7789C99.813 14.9473 99.8677 15.1031 99.9772 15.2463C100.087 15.381 100.242 15.4484 100.445 15.4484C100.47 15.4484 100.562 15.44 100.722 15.4231C100.882 15.3979 101.093 15.3137 101.354 15.1705V17.2673ZM96.8319 11.4442C96.6382 11.5621 96.3856 11.6673 96.074 11.76C95.7624 11.8526 95.4256 11.9495 95.0635 12.0505C94.7014 12.1431 94.3351 12.2442 93.9645 12.3537C93.6024 12.4631 93.274 12.5937 92.9793 12.7452C92.6845 12.8884 92.4403 13.061 92.2467 13.2631C92.0614 13.4568 91.9688 13.6884 91.9688 13.9579C91.9688 14.2189 92.0109 14.4421 92.0951 14.6273C92.1793 14.8126 92.2888 14.9642 92.4235 15.0821C92.5667 15.2 92.7267 15.2884 92.9035 15.3473C93.0803 15.3979 93.2572 15.4231 93.434 15.4231C94.0151 15.4231 94.6045 15.2295 95.2024 14.8421C95.8088 14.4463 96.3519 13.8526 96.8319 13.061V11.4442ZM105.621 -2.19345e-05V2.9684H102.64V-2.19345e-05H105.621ZM105.621 4.74945V17.6084H102.64V4.74945H105.621Z" fill="#131313"/>
</svg>
